<svg xmlns="http://www.w3.org/2000/svg" viewBox="0 0 51.34 51.34"><defs><style>.cls-1{fill:#fff;fill-rule:evenodd;}</style></defs><g id="Layer_2" data-name="Layer 2"><g id="Layer_1-2" data-name="Layer 1"><path class="cls-1" d="M19.51,23.34a3.55,3.55,0,0,0-3.34,3.74,3.56,3.56,0,0,0,3.34,3.74,3.54,3.54,0,0,0,3.34-3.74A3.53,3.53,0,0,0,19.51,23.34Z"/><path class="cls-1" d="M31.85,23.34a3.54,3.54,0,0,0-3.33,3.74,3.56,3.56,0,0,0,3.33,3.74,3.53,3.53,0,0,0,3.34-3.74A3.52,3.52,0,0,0,31.85,23.34Z"/><path class="cls-1" d="M25.67,0A25.67,25.67,0,1,0,51.34,25.67,25.67,25.67,0,0,0,25.67,0ZM44,35.13a30.91,30.91,0,0,1-9.29,4.69.15.15,0,0,1-.14,0,26.19,26.19,0,0,1-1.89-3.08.13.13,0,0,1,.06-.17,17.13,17.13,0,0,0,2.9-1.38.11.11,0,0,0,0-.19c-.19-.15-.39-.3-.57-.46a.15.15,0,0,0-.13,0,22,22,0,0,1-18.67,0,.11.11,0,0,0-.12,0l-.57.45a.11.11,0,0,0,0,.19,19.73,19.73,0,0,0,2.9,1.38.13.13,0,0,1,.06.17,20.73,20.73,0,0,1-1.9,3.08.13.13,0,0,1-.13,0A30.81,30.81,0,0,1,7.3,35.13a.11.11,0,0,1,0-.09,31.28,31.28,0,0,1,5.49-21.13l0-.05a30.82,30.82,0,0,1,7.56-2.34.1.1,0,0,1,.12.06,19.26,19.26,0,0,1,1,1.93,28.1,28.1,0,0,1,8.49,0c.28-.66.6-1.3.94-1.93a.11.11,0,0,1,.12-.06,30.69,30.69,0,0,1,7.56,2.34.08.08,0,0,1,.05.05A31.06,31.06,0,0,1,44.08,35,.13.13,0,0,1,44,35.13Z"/></g></g></svg>