<svg xmlns="http://www.w3.org/2000/svg" viewBox="0 0 52 52"><defs><style>.cls-1{fill:#fff;}</style></defs><g id="Layer_2" data-name="Layer 2"><g id="Layer_1-2" data-name="Layer 1"><path class="cls-1" d="M23.92,36.62a1.2,1.2,0,0,0-1.21,1.21A1.32,1.32,0,0,0,24,39a1.26,1.26,0,0,0,1.15-1.3A1.13,1.13,0,0,0,23.92,36.62Z"/><path class="cls-1" d="M43.21,26.51A1.22,1.22,0,0,0,42,27.75,1.21,1.21,0,0,0,43.21,29a1.24,1.24,0,0,0,0-2.47Z"/><path class="cls-1" d="M26,0A26,26,0,1,0,52,26,26,26,0,0,0,26,0ZM41.37,31.12a1.3,1.3,0,0,0-1,0c-3.92,2.08-7.8,4.22-11.71,6.31a1.85,1.85,0,0,0-1,1.27,3.75,3.75,0,0,1-6.24,2A8.35,8.35,0,0,1,20.3,39a3,3,0,0,0-.84-1c-3.66-1.91-7.35-3.76-11-5.68a7.07,7.07,0,0,1-2.81-8.88,4.36,4.36,0,0,1,1.78-1.73c5.33-2.72,10.69-5.37,16-8,1.31-.65,2.62-1.28,3.92-1.95a3.09,3.09,0,0,1,2.88-.05q7.11,3.38,14.22,6.78c.36.18.84.63.82.92a1.6,1.6,0,0,1-.83,1c-6.58,3.46-13.19,6.88-19.78,10.33a2.59,2.59,0,0,1-2.66,0c-4.18-2.23-8.38-4.42-12.57-6.62-1-.53-1.73-.27-2,.83-.52,2,.42,4.62,2.22,5.5,3.62,1.78,7.15,3.74,10.79,5.67A4.23,4.23,0,0,1,23.61,34a4.08,4.08,0,0,1,3.49,1.61l9.23-4.92c.91-.49,1.84-.94,2.72-1.49a1,1,0,0,0,.39-.83,3.82,3.82,0,0,1,6.85-2.86,4,4,0,0,1-.13,4.67A3.85,3.85,0,0,1,41.37,31.12Z"/></g></g></svg>