<svg xmlns="http://www.w3.org/2000/svg" viewBox="0 0 51.34 50.06"><defs><style>.cls-1{fill:#fff;}</style></defs><g id="Layer_2" data-name="Layer 2"><g id="Layer_1-2" data-name="Layer 1"><path class="cls-1" d="M51.34,25.26A25.72,25.72,0,0,1,34,50c-1.31.23-1.79-.58-1.79-1.26,0-.85,0-5.16,0-8.65a6.11,6.11,0,0,0-1.76-4.8c5.79-.66,11.89-1.45,11.89-11.44,0-2.84-1-4.27-2.67-6.1a9.88,9.88,0,0,0-.27-7c-2.17-.68-7.15,2.8-7.15,2.8a24.45,24.45,0,0,0-13,0s-5-3.47-7.14-2.8a9.77,9.77,0,0,0-.27,7,7.86,7.86,0,0,0-2.44,6.1c0,10,5.84,10.79,11.62,11.44a5.72,5.72,0,0,0-1.65,3.49c-1.48.68-5.28,1.83-7.55-2.17a5.47,5.47,0,0,0-4-2.67c-2.54,0-.17,1.6-.17,1.6,1.7.77,2.88,3.78,2.88,3.78,1.52,4.64,8.76,3.09,8.76,3.09,0,2.17,0,5.71,0,6.35s-.47,1.49-1.8,1.26A26,26,0,0,1,0,25.26C0,10.9,11,0,25.34,0S51.34,10.9,51.34,25.26ZM9.39,34.79c.21.1.31.27.24.4a.31.31,0,0,1-.45.08c-.21-.11-.31-.27-.24-.41A.41.41,0,0,1,9.39,34.79Zm1.21,1c.18.2.21.44.07.54s-.37.06-.54-.1-.2-.44-.07-.54S10.43,35.64,10.6,35.8Zm1.1,1.43a.48.48,0,0,1,0,.64c-.14.11-.42,0-.58-.23s-.17-.51,0-.61S11.55,37,11.7,37.23ZM13,38.65c.21.2.27.51.13.64s-.43.14-.67-.1-.3-.51-.13-.64S12.74,38.41,13,38.65Zm1.62,1c.32.1.51.33.45.54a.48.48,0,0,1-.64.21c-.31-.06-.52-.3-.45-.51A.54.54,0,0,1,14.59,39.6Zm2,.33c-.3,0-.54.17-.54.38s.24.4.58.37.54-.17.54-.37S16.9,39.9,16.59,39.93Zm2.55,0c0,.2-.18.4-.48.47s-.58-.06-.61-.27.18-.43.48-.5S19.11,39.77,19.14,40Z"/></g></g></svg>