<svg xmlns="http://www.w3.org/2000/svg" viewBox="0 0 52.25 52.25"><defs><style>.cls-1{fill:#fff;}</style></defs><g id="Layer_2" data-name="Layer 2"><g id="Layer_1-2" data-name="Layer 1"><path class="cls-1" d="M26.13,0A26.13,26.13,0,1,0,52.25,26.13,26.13,26.13,0,0,0,26.13,0ZM41.84,14.18l-2.53,2.4a.73.73,0,0,0-.26.71V35a.73.73,0,0,0,.26.71l2.47,2.41v.52H29.44v-.52L32,35.61a1,1,0,0,0,.23-.29,1.86,1.86,0,0,0,0-.42V20.61l-7,17.92h-1L16,20.61v12A1.73,1.73,0,0,0,16.45,34l3.31,4v.52H10.41V38l3.31-4a1.52,1.52,0,0,0,.46-1.37V18.72a1.42,1.42,0,0,0-.46-1l-2.92-3.5v-.52H20l7,15.45,6.17-15.45h8.7Z"/></g></g></svg>