<svg xmlns="http://www.w3.org/2000/svg" viewBox="0 0 52.51 52.51"><defs><style>.cls-1{fill:#fff;}</style></defs><g id="Layer_2" data-name="Layer 2"><g id="Layer_1-2" data-name="Layer 1"><path class="cls-1" d="M26.25,0A26.26,26.26,0,1,0,52.51,26.25,26.25,26.25,0,0,0,26.25,0Zm16,24.39a1,1,0,0,1-.1.29,1.2,1.2,0,0,1-.22.23l-2,1.75-4.46,3.88-5.54,4.82-5.44,4.73-4.13,3.6c-.8.69-1.59,1.7-2.75,1.65a.86.86,0,0,1-.56-.19.85.85,0,0,1-.22-.67,4.58,4.58,0,0,1,.76-1.74c.16-.31.33-.61.5-.92.42-.77.84-1.55,1.27-2.32,1.2-2.22,2.41-4.43,3.62-6.65l1.88-3.44a5,5,0,0,1-1,0H12.69a6.63,6.63,0,0,1-1.94-.1.72.72,0,0,1-.37-.21.76.76,0,0,1-.07-.73,2.71,2.71,0,0,1,1-1.13L12.72,26l4.09-3.56L22,17.93l5.22-4.55L31.5,9.63,33,8.32a7.45,7.45,0,0,1,1.16-.94,1.55,1.55,0,0,1,.71-.21,1.3,1.3,0,0,1,.62.09A1,1,0,0,1,36,8a1.22,1.22,0,0,1-.11.62c-.78,1.68-1.76,3.3-2.62,4.94l-3.32,6.27L28.29,23l7.36,0h4.4a7.94,7.94,0,0,1,1.29,0,1.15,1.15,0,0,1,.75.43A1.23,1.23,0,0,1,42.22,24.39Z"/></g></g></svg>