<svg xmlns="http://www.w3.org/2000/svg" viewBox="0 0 52 52"><defs><style>.cls-1{fill:#fff;}</style></defs><g id="Layer_2" data-name="Layer 2"><g id="Layer_1-2" data-name="Layer 1"><path class="cls-1" d="M52,26A26,26,0,1,1,26,0,26,26,0,0,1,52,26ZM38,16.66a1.1,1.1,0,0,0-.37-.71,1.75,1.75,0,0,0-1-.3c-1,0-2.48.54-9.7,3.54q-3.8,1.59-15.16,6.54c-1.23.48-1.88,1-1.94,1.43-.11.9,1.19,1.18,2.81,1.71a18.74,18.74,0,0,0,4.05,1,5,5,0,0,0,2.82-1q10.62-7.17,11-7.24a.58.58,0,0,1,.54.05.52.52,0,0,1,.12.46c-.13.55-6.78,6.6-7.16,7-1.46,1.52-3.13,2.45-.56,4.14,2.22,1.46,3.51,2.39,5.8,3.89,1.46,1,2.61,2.1,4.12,2,.69-.06,1.41-.72,1.78-2.66.86-4.61,2.55-14.59,2.94-18.7A4.36,4.36,0,0,0,38,16.66Z"/></g></g></svg>