<svg xmlns="http://www.w3.org/2000/svg" viewBox="0 0 51.34 51.34"><defs><style>.cls-1{fill:#fff;}</style></defs><g id="Layer_2" data-name="Layer 2"><g id="Layer_1-2" data-name="Layer 1"><path class="cls-1" d="M25.67,0A25.67,25.67,0,1,0,51.34,25.67,25.67,25.67,0,0,0,25.67,0Zm14,20.88c0,.29,0,.57,0,.86,0,8.77-6.67,18.86-18.86,18.86a18.75,18.75,0,0,1-10.19-3,14.23,14.23,0,0,0,1.61.08,13.33,13.33,0,0,0,8.23-2.83,6.63,6.63,0,0,1-6.2-4.6,8.55,8.55,0,0,0,1.25.1,7.15,7.15,0,0,0,1.74-.22A6.64,6.64,0,0,1,12,23.65v-.08a6.69,6.69,0,0,0,3,.84A6.65,6.65,0,0,1,13,15.54a18.84,18.84,0,0,0,13.67,6.94A7.69,7.69,0,0,1,26.46,21a6.63,6.63,0,0,1,11.47-4.53,13.09,13.09,0,0,0,4.21-1.61,6.6,6.6,0,0,1-2.92,3.66,13.57,13.57,0,0,0,3.82-1A14.23,14.23,0,0,1,39.72,20.88Z"/></g></g></svg>