<svg xmlns="http://www.w3.org/2000/svg" viewBox="0 0 53.94 53.94"><defs><style>.cls-1{fill:#fff;}</style></defs><g id="Layer_2" data-name="Layer 2"><g id="Layer_1-2" data-name="Layer 1"><polygon class="cls-1" points="23.8 31.62 31.91 26.97 23.8 22.38 23.8 31.62"/><path class="cls-1" d="M27,0a27,27,0,1,0,27,27A27,27,0,0,0,27,0ZM42.4,29.81a26.17,26.17,0,0,1-.56,4.71,4.07,4.07,0,0,1-2.78,2.72,41.62,41.62,0,0,1-6.93.57l-5.16,0-5.16,0a41.45,41.45,0,0,1-6.92-.57,4,4,0,0,1-2.78-2.72,25.1,25.1,0,0,1-.57-4.71L11.48,27c0-.83,0-1.78.06-2.84a24.78,24.78,0,0,1,.57-4.65,4,4,0,0,1,1-1.76,4,4,0,0,1,1.76-1,40.74,40.74,0,0,1,6.92-.56L27,16.08l5.16.06a40.9,40.9,0,0,1,6.93.56,4,4,0,0,1,2.78,2.78,25.85,25.85,0,0,1,.56,4.65L42.46,27Z"/></g></g></svg>