<?xml version="1.0" standalone="no"?>
<!DOCTYPE svg PUBLIC "-//W3C//DTD SVG 20010904//EN"
 "http://www.w3.org/TR/2001/REC-SVG-20010904/DTD/svg10.dtd">
<svg version="1.0" xmlns="http://www.w3.org/2000/svg"
 width="1024.000000pt" height="1024.000000pt" viewBox="0 0 1024.000000 1024.000000"
 preserveAspectRatio="xMidYMid meet">
<metadata>
Created by potrace 1.14, written by Peter Selinger 2001-2017
</metadata>
<g transform="translate(0.000000,1024.000000) scale(0.100000,-0.100000)"
fill="#000000" stroke="none">
<path d="M0 5120 l0 -5120 5120 0 5120 0 0 5120 0 5120 -5120 0 -5120 0 0
-5120z m5109 4004 c30 -12 191 -169 650 -634 336 -339 615 -630 621 -646 6
-15 8 -41 4 -58 l-6 -30 -18 37 c-27 54 -37 65 -338 375 -276 284 -317 328
-341 367 -11 19 -12 19 -6 -3 17 -63 40 -38 -1460 -1543 -1481 -1485 -1505
-1511 -1550 -1632 -26 -69 -17 -157 25 -235 40 -75 203 -237 271 -270 61 -29
134 -38 198 -22 116 28 133 44 1361 1272 1221 1221 1250 1249 1461 1373 109
64 281 138 364 156 33 7 105 12 160 12 184 -1 354 -58 539 -179 91 -60 165
-131 722 -688 649 -649 707 -713 798 -886 91 -173 124 -366 92 -546 -8 -50
-20 -102 -26 -115 -10 -22 -10 -22 -5 6 3 17 11 77 17 135 14 128 -2 242 -51
363 -74 185 -159 297 -507 667 -143 151 -270 290 -282 308 -46 64 -39 20 9
-60 92 -155 132 -300 131 -473 -2 -261 -131 -541 -384 -832 -42 -48 -792 -806
-1668 -1683 -876 -877 -1483 -1482 -1349 -1345 295 304 1127 1150 1724 1755
242 245 523 531 625 635 102 105 273 280 380 390 107 110 226 238 263 285 86
107 200 277 228 338 12 26 31 70 44 97 12 28 25 64 28 82 l6 32 -42 -39 c-23
-22 -48 -40 -55 -40 -7 0 -10 -5 -7 -10 4 -6 -7 -15 -24 -21 -35 -12 -35 -12
-19 -42 10 -19 9 -20 -4 -9 -11 9 -22 9 -39 3 -13 -5 -18 -10 -11 -10 6 -1 12
-5 12 -10 0 -4 -12 -7 -26 -5 -14 1 -23 0 -21 -3 9 -9 -33 -44 -45 -37 -8 5
-9 2 -5 -10 4 -10 3 -15 -3 -11 -6 3 -10 2 -10 -3 0 -4 -16 -16 -36 -25 -19
-10 -32 -22 -29 -27 10 -16 -11 -12 -25 5 -13 16 -35 10 -24 -6 3 -5 10 -7 15
-4 5 4 9 3 9 -1 0 -8 -48 -54 -56 -54 -9 0 -34 -28 -34 -39 0 -6 -7 -7 -17 -4
-9 4 -14 2 -11 -3 4 -5 -20 -24 -53 -41 -41 -23 -59 -28 -59 -19 0 20 -30 29
-36 11 -8 -19 -24 -19 -24 0 0 23 -30 18 -39 -6 -7 -19 -9 -20 -22 -7 -12 14
-15 14 -26 -1 -8 -10 -12 -12 -13 -3 0 6 -5 12 -11 12 -5 0 -7 -4 -4 -10 3 -5
-7 -12 -22 -16 -15 -3 -33 -7 -40 -9 -7 -2 -15 0 -18 5 -3 5 -12 7 -20 3 -13
-5 -20 7 -16 29 0 5 -27 -12 -60 -37 -51 -37 -69 -45 -105 -45 -24 0 -44 5
-44 10 0 6 -9 10 -20 10 -11 0 -20 -4 -20 -10 0 -5 7 -10 15 -10 17 0 18 -2 9
-24 -9 -24 -34 -19 -34 7 -1 20 -2 21 -14 5 -7 -10 -16 -15 -19 -11 -4 3 -7
-1 -7 -10 0 -11 -5 -14 -17 -10 -11 4 -14 3 -9 -6 5 -8 1 -14 -13 -18 -11 -3
-18 -9 -15 -14 3 -5 -4 -9 -15 -9 -12 0 -21 -5 -21 -11 0 -13 -26 -40 -33 -33
-2 3 -12 -11 -21 -31 -9 -19 -21 -35 -25 -35 -4 0 -13 -11 -19 -24 -9 -20 -8
-25 5 -30 13 -5 13 -9 2 -22 -7 -9 -14 -23 -16 -32 -1 -9 -10 -22 -19 -29 -10
-7 -15 -16 -11 -19 7 -8 -88 -104 -103 -104 -6 0 -10 -8 -10 -17 0 -9 -12 -30
-27 -46 -19 -20 -24 -31 -15 -34 6 -3 12 -10 12 -15 0 -6 -3 -9 -6 -5 -3 3
-20 -8 -36 -24 -17 -16 -39 -29 -49 -29 -11 0 -18 -3 -17 -7 3 -16 -15 -43
-28 -43 -8 0 -14 -7 -14 -15 0 -8 -4 -15 -10 -15 -5 0 -10 -7 -10 -15 0 -8 4
-15 9 -15 5 0 11 7 15 15 3 8 13 15 23 14 13 0 14 -2 4 -6 -7 -3 -22 -13 -32
-22 -36 -33 -47 -40 -53 -34 -3 4 -6 1 -6 -6 0 -7 -7 -20 -16 -28 -13 -14 -17
-14 -25 -2 -7 11 -9 9 -9 -8 0 -14 -6 -23 -15 -23 -8 0 -15 -6 -15 -14 0 -7
-7 -19 -15 -26 -12 -10 -18 -10 -30 0 -10 9 -15 9 -15 1 0 -18 -58 -73 -69
-66 -6 3 -11 2 -11 -4 0 -5 4 -11 10 -13 5 -2 6 -9 1 -16 -7 -11 -11 -10 -25
3 -9 9 -16 13 -16 8 0 -5 5 -14 11 -20 9 -9 5 -11 -15 -9 -15 2 -26 -2 -26 -9
0 -7 -18 -15 -40 -19 -22 -3 -40 -11 -40 -16 0 -6 -9 -10 -20 -10 -11 0 -20 5
-20 10 0 6 -5 10 -11 10 -6 0 -9 -6 -6 -14 3 -8 -1 -22 -8 -33 -8 -10 -15 -25
-15 -35 0 -12 -6 -15 -22 -10 -20 5 -21 4 -9 -11 12 -15 10 -18 -10 -26 -15
-5 -29 -5 -37 2 -14 11 -62 -9 -62 -26 0 -5 7 -3 17 4 14 12 16 12 11 -1 -5
-16 -41 -18 -71 -5 -19 8 -21 -13 -2 -28 6 -5 0 -5 -12 -2 -17 5 -23 2 -23
-11 0 -13 -3 -14 -14 -5 -8 7 -16 8 -18 4 -1 -4 -20 -17 -41 -27 -35 -18 -36
-20 -21 -38 17 -18 40 -26 30 -10 -3 5 2 9 10 9 13 0 13 -2 1 -14 -11 -12 -21
-9 -62 13 -30 17 -46 22 -43 13 5 -16 -47 -63 -62 -54 -5 3 -10 1 -10 -4 0 -6
5 -11 10 -11 20 0 9 -16 -12 -17 -11 -1 -24 -6 -27 -11 -7 -10 -72 -12 -66 -2
2 3 -6 7 -18 7 -16 2 -18 0 -8 -6 20 -13 3 -33 -22 -26 -17 5 -18 4 -8 -4 12
-8 12 -12 2 -25 -7 -9 -18 -13 -24 -9 -5 3 -7 1 -3 -5 11 -18 -23 -43 -44 -32
-15 8 -22 5 -34 -12 -9 -12 -16 -18 -16 -13 0 6 -7 1 -15 -9 -8 -11 -15 -14
-15 -8 0 18 -17 14 -43 -10 -32 -32 -158 -148 -263 -243 -49 -44 -127 -117
-174 -161 -141 -135 -153 -144 -182 -144 -27 0 -66 28 -186 134 -21 18 -22 18
-59 -10 -21 -15 -40 -31 -43 -34 -3 -3 -15 -5 -27 -4 -13 1 -23 -1 -23 -5 0
-3 -12 -7 -26 -7 -32 -2 -43 -12 -24 -24 11 -7 6 -10 -18 -10 -44 0 -112 -33
-136 -64 -10 -14 -22 -23 -27 -21 -4 3 -14 -4 -22 -16 -9 -12 -18 -16 -21 -10
-4 5 -13 8 -21 4 -8 -3 -15 -1 -15 4 0 15 -29 11 -35 -5 -3 -8 -11 -12 -19 -9
-8 3 -16 -2 -19 -12 -3 -13 -14 -18 -45 -18 -42 0 -72 -20 -72 -48 0 -9 -5
-13 -10 -10 -6 4 -8 11 -5 16 4 5 4 9 1 9 -3 0 -12 -13 -21 -30 -9 -17 -21
-27 -29 -24 -20 8 -28 -47 -10 -67 8 -8 14 -26 14 -38 0 -13 10 -37 23 -54 12
-17 27 -39 32 -48 18 -31 158 -213 183 -239 14 -14 32 -36 40 -50 9 -14 22
-32 29 -40 12 -14 144 -167 202 -233 14 -17 33 -38 41 -46 8 -9 69 -76 135
-150 154 -171 177 -184 251 -136 l39 25 -35 -30 c-19 -17 -51 -36 -72 -42 -34
-10 -35 -12 -20 -27 10 -10 161 -159 338 -333 353 -349 363 -356 440 -323 33
14 35 14 23 -1 -34 -42 -107 -56 -157 -30 -28 15 -315 308 -912 931 -194 204
-447 465 -560 580 -113 116 -212 224 -219 241 -10 25 -10 41 -1 75 10 39 47
79 303 336 253 252 297 292 329 298 21 4 50 4 65 0 18 -4 97 -76 215 -194
l188 -187 435 430 436 429 -190 191 c-205 208 -218 228 -190 299 13 33 503
537 573 588 42 31 90 38 129 18 12 -6 106 -95 210 -197 l187 -187 396 395
c272 272 410 418 444 468 49 72 80 151 80 202 0 43 -28 124 -58 169 -49 72
-283 301 -336 328 -101 51 -205 39 -326 -38 -49 -31 -351 -328 -1205 -1184
-627 -629 -1183 -1178 -1235 -1221 -318 -261 -605 -371 -869 -334 -152 21
-277 68 -415 157 -37 24 -70 42 -73 40 -6 -6 566 -562 672 -652 49 -42 116
-94 150 -116 33 -21 57 -39 53 -39 -15 0 -116 66 -193 126 -77 60 -705 681
-705 697 0 4 -50 54 -112 111 -152 139 -406 405 -468 490 -77 106 -145 249
-170 360 -30 130 -25 309 13 437 58 194 173 391 348 596 49 57 485 497 2041
2060 1141 1145 1174 1178 1235 1182 7 1 30 -6 52 -15z m1807 -3696 c4 -7 3 -8
-4 -4 -7 4 -12 2 -12 -5 0 -7 -3 -10 -6 -6 -6 5 3 27 11 27 2 0 7 -5 11 -12z
m-156 -58 c0 -5 -7 -10 -16 -10 -8 0 -12 5 -9 10 3 6 10 10 16 10 5 0 9 -4 9
-10z m-1382 -1255 c-3 -3 -9 2 -12 12 -6 14 -5 15 5 6 7 -7 10 -15 7 -18z"/>
<path d="M7740 6776 c0 -2 8 -10 18 -17 15 -13 16 -12 3 4 -13 16 -21 21 -21
13z"/>
<path d="M7465 5680 c3 -5 8 -10 11 -10 2 0 4 5 4 10 0 6 -5 10 -11 10 -5 0
-7 -4 -4 -10z"/>
<path d="M5174 4106 c-11 -8 -15 -18 -10 -23 5 -4 11 -2 13 5 3 6 11 12 19 12
8 0 14 5 14 10 0 14 -13 12 -36 -4z"/>
<path d="M5135 4080 c-3 -5 -1 -10 4 -10 6 0 11 5 11 10 0 6 -2 10 -4 10 -3 0
-8 -4 -11 -10z"/>
<path d="M4950 3929 c0 -5 5 -7 10 -4 6 3 10 8 10 11 0 2 -4 4 -10 4 -5 0 -10
-5 -10 -11z"/>
<path d="M3870 3430 c0 -5 5 -10 11 -10 5 0 7 5 4 10 -3 6 -8 10 -11 10 -2 0
-4 -4 -4 -10z"/>
<path d="M3540 3310 c0 -5 5 -10 11 -10 5 0 7 5 4 10 -3 6 -8 10 -11 10 -2 0
-4 -4 -4 -10z"/>
</g>
</svg>
